<svg class="main-svg" xmlns="http://www.w3.org/2000/svg" xmlns:xlink="http://www.w3.org/1999/xlink" width="700" height="500" style="" viewBox="0 0 700 500"><rect x="0" y="0" width="700" height="500" style="fill: rgb(255, 255, 255); fill-opacity: 1;"/><defs id="defs-7387a3"><g class="clips"><clipPath id="clip7387a3xyplot" class="plotclip"><rect width="457" height="360"/></clipPath><clipPath class="axesclip" id="clip7387a3x"><rect x="80" y="0" width="457" height="500"/></clipPath><clipPath class="axesclip" id="clip7387a3y"><rect x="0" y="60" width="700" height="360"/></clipPath><clipPath class="axesclip" id="clip7387a3xy"><rect x="80" y="60" width="457" height="360"/></clipPath></g><g class="gradients"/><g class="patterns"/></defs><g class="bglayer"><rect class="bg" x="80" y="60" width="457" height="360" style="fill: rgb(229, 236, 246); fill-opacity: 1; stroke-width: 0;"/></g><g class="layer-below"><g class="imagelayer"/><g class="shapelayer"/></g><g class="cartesianlayer"><g class="subplot xy"><g class="layer-subplot"><g class="shapelayer"/><g class="imagelayer"/></g><g class="gridlayer"><g class="x"><path class="xgrid crisp" transform="translate(148.55,0)" d="M0,60v360" style="stroke: rgb(255, 255, 255); stroke-opacity: 1; stroke-width: 1px;"/><path class="xgrid crisp" transform="translate(262.8,0)" d="M0,60v360" style="stroke: rgb(255, 255, 255); stroke-opacity: 1; stroke-width: 1px;"/><path class="xgrid crisp" transform="translate(377.05,0)" d="M0,60v360" style="stroke: rgb(255, 255, 255); stroke-opacity: 1; stroke-width: 1px;"/><path class="xgrid crisp" transform="translate(491.3,0)" d="M0,60v360" style="stroke: rgb(255, 255, 255); stroke-opacity: 1; stroke-width: 1px;"/></g><g class="y"><path class="ygrid crisp" transform="translate(0,372.88)" d="M80,0h457" style="stroke: rgb(255, 255, 255); stroke-opacity: 1; stroke-width: 1px;"/><path class="ygrid crisp" transform="translate(0,325.76)" d="M80,0h457" style="stroke: rgb(255, 255, 255); stroke-opacity: 1; stroke-width: 1px;"/><path class="ygrid crisp" transform="translate(0,278.64)" d="M80,0h457" style="stroke: rgb(255, 255, 255); stroke-opacity: 1; stroke-width: 1px;"/><path class="ygrid crisp" transform="translate(0,231.52)" d="M80,0h457" style="stroke: rgb(255, 255, 255); stroke-opacity: 1; stroke-width: 1px;"/><path class="ygrid crisp" transform="translate(0,184.4)" d="M80,0h457" style="stroke: rgb(255, 255, 255); stroke-opacity: 1; stroke-width: 1px;"/><path class="ygrid crisp" transform="translate(0,137.28)" d="M80,0h457" style="stroke: rgb(255, 255, 255); stroke-opacity: 1; stroke-width: 1px;"/><path class="ygrid crisp" transform="translate(0,90.16)" d="M80,0h457" style="stroke: rgb(255, 255, 255); stroke-opacity: 1; stroke-width: 1px;"/></g></g><g class="zerolinelayer"><path class="yzl zl crisp" transform="translate(0,420)" d="M80,0h457" style="stroke: rgb(255, 255, 255); stroke-opacity: 1; stroke-width: 2px;"/></g><path class="xlines-below"/><path class="ylines-below"/><g class="overlines-below"/><g class="xaxislayer-below"/><g class="yaxislayer-below"/><g class="overaxes-below"/><g class="plot" transform="translate(80,60)" clip-path="url(#clip7387a3xyplot)"><g class="scatterlayer mlayer"><g class="trace scatter trace55bfec" style="stroke-miterlimit: 2;"><g class="fills"><g><path class="js-fill" d="M457,360L0,360L0,358.3L45.7,355.66L68.55,356.14L91.4,357.64L114.25,354.91L137.1,351.42L159.95,351.52L205.65,350.95L228.5,349.26L251.35,354.16L274.2,352.46L297.05,350.29L319.9,346.71L342.75,343.7L365.6,343.04L388.45,341.53L411.3,341.81L434.15,332.1L457,334.37" style="fill: rgb(99, 110, 250); fill-opacity: 0.5; stroke-width: 0;"/></g><g><path class="js-fill" d="M0,354.35L22.85,352.65L45.7,347.65L68.55,349.45L91.4,349.26L114.25,345.96L137.1,345.02L159.95,344.45L182.8,342.47L205.65,344.73L228.5,342.19L251.35,348.03L274.2,345.39L297.05,340.12L319.9,331.82L342.75,334.27L365.6,334.74L388.45,329.09L411.3,330.6L434.15,320.61L457,322.59L457,334.37L434.15,332.1L411.3,341.81L388.45,341.53L365.6,343.04L342.75,343.7L319.9,346.71L297.05,350.29L274.2,352.46L251.35,354.16L228.5,349.26L205.65,350.95L159.95,351.52L137.1,351.42L114.25,354.91L91.4,357.64L68.55,356.14L45.7,355.66L0,358.3Z" style="fill: rgb(239, 85, 59); fill-opacity: 0.5; stroke-width: 0;"/></g></g><g class="errorbars"/><g class="lines"><path class="js-line" d="M0,358.3L45.7,355.66L68.55,356.14L91.4,357.64L114.25,354.91L137.1,351.42L159.95,351.52L205.65,350.95L228.5,349.26L251.35,354.16L274.2,352.46L297.05,350.29L319.9,346.71L342.75,343.7L365.6,343.04L388.45,341.53L411.3,341.81L434.15,332.1L457,334.37" style="vector-effect: non-scaling-stroke; fill: none; stroke: rgb(99, 110, 250); stroke-opacity: 1; stroke-width: 2px; opacity: 1;"/></g><g class="points"/><g class="text"/></g><g class="trace scatter trace6c4449" style="stroke-miterlimit: 2;"><g class="fills"><g><path class="js-fill" d="M0,352.18L22.85,350.76L45.7,342.28L68.55,347.47L91.4,342.47L114.25,342.19L137.1,337.95L159.95,338.89L182.8,335.21L205.65,338.51L228.5,334.65L251.35,330.97L274.2,337.76L297.05,326.45L319.9,321.17L342.75,322.68L365.6,322.02L388.45,311.18L411.3,307.23L434.15,307.23L457,309.96L457,322.59L434.15,320.61L411.3,330.6L388.45,329.09L365.6,334.74L342.75,334.27L319.9,331.82L297.05,340.12L274.2,345.39L251.35,348.03L228.5,342.19L205.65,344.73L182.8,342.47L159.95,344.45L137.1,345.02L114.25,345.96L91.4,349.26L68.55,349.45L45.7,347.65L22.85,352.65L0,354.35Z" style="fill: rgb(0, 204, 150); fill-opacity: 0.5; stroke-width: 0;"/></g></g><g class="errorbars"/><g class="lines"><path class="js-line" d="M0,354.35L22.85,352.65L45.7,347.65L68.55,349.45L91.4,349.26L114.25,345.96L137.1,345.02L159.95,344.45L182.8,342.47L205.65,344.73L228.5,342.19L251.35,348.03L274.2,345.39L297.05,340.12L319.9,331.82L342.75,334.27L365.6,334.74L388.45,329.09L411.3,330.6L434.15,320.61L457,322.59" style="vector-effect: non-scaling-stroke; fill: none; stroke: rgb(239, 85, 59); stroke-opacity: 1; stroke-width: 2px; opacity: 1;"/></g><g class="points"/><g class="text"/></g><g class="trace scatter tracef07f70" style="stroke-miterlimit: 2;"><g class="fills"><g><path class="js-fill" d="M0,350.95L22.85,348.88L45.7,339.93L68.55,344.92L91.4,339.08L114.25,335.59L137.1,331.07L159.95,333.42L182.8,329.56L205.65,330.13L228.5,332.01L251.35,325.13L274.2,331.16L297.05,320.51L319.9,311.09L342.75,310.81L365.6,311.47L388.45,302.8L411.3,297.14L434.15,292.52L457,301.19L457,309.96L434.15,307.23L411.3,307.23L388.45,311.18L365.6,322.02L342.75,322.68L319.9,321.17L297.05,326.45L274.2,337.76L251.35,330.97L228.5,334.65L205.65,338.51L182.8,335.21L159.95,338.89L137.1,337.95L114.25,342.19L91.4,342.47L68.55,347.47L45.7,342.28L22.85,350.76L0,352.18Z" style="fill: rgb(171, 99, 250); fill-opacity: 0.5; stroke-width: 0;"/></g></g><g class="errorbars"/><g class="lines"><path class="js-line" d="M0,352.18L22.85,350.76L45.7,342.28L68.55,347.47L91.4,342.47L114.25,342.19L137.1,337.95L159.95,338.89L182.8,335.21L205.65,338.51L228.5,334.65L251.35,330.97L274.2,337.76L297.05,326.45L319.9,321.17L342.75,322.68L365.6,322.02L388.45,311.18L411.3,307.23L434.15,307.23L457,309.96" style="vector-effect: non-scaling-stroke; fill: none; stroke: rgb(0, 204, 150); stroke-opacity: 1; stroke-width: 2px; opacity: 1;"/></g><g class="points"/><g class="text"/></g><g class="trace scatter trace0f9cc3" style="stroke-miterlimit: 2;"><g class="fills"><g><path class="js-fill" d="M0,348.5L22.85,344.64L45.7,336.16L68.55,339.36L91.4,332.1L114.25,329.28L137.1,324.85L159.95,327.96L182.8,321.17L205.65,322.96L228.5,323.81L251.35,316.46L274.2,321.93L297.05,305.53L319.9,281.87L342.75,292.52L365.6,289.98L388.45,281.69L411.3,262.08L434.15,260.76L457,252.75L457,301.19L434.15,292.52L411.3,297.14L388.45,302.8L365.6,311.47L342.75,310.81L319.9,311.09L297.05,320.51L274.2,331.16L251.35,325.13L228.5,332.01L205.65,330.13L182.8,329.56L159.95,333.42L137.1,331.07L114.25,335.59L91.4,339.08L68.55,344.92L45.7,339.93L22.85,348.88L0,350.95Z" style="fill: rgb(255, 161, 90); fill-opacity: 0.5; stroke-width: 0;"/></g></g><g class="errorbars"/><g class="lines"><path class="js-line" d="M0,350.95L22.85,348.88L45.7,339.93L68.55,344.92L91.4,339.08L114.25,335.59L137.1,331.07L159.95,333.42L182.8,329.56L205.65,330.13L228.5,332.01L251.35,325.13L274.2,331.16L297.05,320.51L319.9,311.09L342.75,310.81L365.6,311.47L388.45,302.8L411.3,297.14L434.15,292.52L457,301.19" style="vector-effect: non-scaling-stroke; fill: none; stroke: rgb(171, 99, 250); stroke-opacity: 1; stroke-width: 2px; opacity: 1;"/></g><g class="points"/><g class="text"/></g><g class="trace scatter trace1e94ff" style="stroke-miterlimit: 2;"><g class="fills"><g><path class="js-fill" d="M0,345.39L22.85,339.55L45.7,331.35L68.55,337.57L91.4,328.52L114.25,326.26L137.1,320.23L159.95,324.09L182.8,316.37L228.5,316.84L251.35,303.36L274.2,307.04L297.05,294.97L319.9,271.04L342.75,280.27L388.45,265.95L411.3,246.35L434.15,247.38L457,236.83L457,252.75L434.15,260.76L411.3,262.08L388.45,281.69L365.6,289.98L342.75,292.52L319.9,281.87L297.05,305.53L274.2,321.93L251.35,316.46L228.5,323.81L205.65,322.96L182.8,321.17L159.95,327.96L137.1,324.85L114.25,329.28L91.4,332.1L68.55,339.36L45.7,336.16L22.85,344.64L0,348.5Z" style="fill: rgb(25, 211, 243); fill-opacity: 0.5; stroke-width: 0;"/></g></g><g class="errorbars"/><g class="lines"><path class="js-line" d="M0,348.5L22.85,344.64L45.7,336.16L68.55,339.36L91.4,332.1L114.25,329.28L137.1,324.85L159.95,327.96L182.8,321.17L205.65,322.96L228.5,323.81L251.35,316.46L274.2,321.93L297.05,305.53L319.9,281.87L342.75,292.52L365.6,289.98L388.45,281.69L411.3,262.08L434.15,260.76L457,252.75" style="vector-effect: non-scaling-stroke; fill: none; stroke: rgb(255, 161, 90); stroke-opacity: 1; stroke-width: 2px; opacity: 1;"/></g><g class="points"/><g class="text"/></g><g class="trace scatter trace5b3fd5" style="stroke-miterlimit: 2;"><g class="fills"><g><path class="js-fill" d="M0,344.92L22.85,338.61L45.7,329.47L68.55,336.35L91.4,326.54L114.25,323.34L137.1,318.16L159.95,322.4L182.8,314.1L228.5,311.28L251.35,300.44L274.2,303.55L297.05,292.15L319.9,264.06L342.75,268.77L365.6,257.18L388.45,253.88L411.3,226.27L434.15,222.69L457,219.58L457,236.83L434.15,247.38L411.3,246.35L388.45,265.95L342.75,280.27L319.9,271.04L297.05,294.97L274.2,307.04L251.35,303.36L228.5,316.84L182.8,316.37L159.95,324.09L137.1,320.23L114.25,326.26L91.4,328.52L68.55,337.57L45.7,331.35L22.85,339.55L0,345.39Z" style="fill: rgb(255, 102, 146); fill-opacity: 0.5; stroke-width: 0;"/></g></g><g class="errorbars"/><g class="lines"><path class="js-line" d="M0,345.39L22.85,339.55L45.7,331.35L68.55,337.57L91.4,328.52L114.25,326.26L137.1,320.23L159.95,324.09L182.8,316.37L228.5,316.84L251.35,303.36L274.2,307.04L297.05,294.97L319.9,271.04L342.75,280.27L388.45,265.95L411.3,246.35L434.15,247.38L457,236.83" style="vector-effect: non-scaling-stroke; fill: none; stroke: rgb(25, 211, 243); stroke-opacity: 1; stroke-width: 2px; opacity: 1;"/></g><g class="points"/><g class="text"/></g><g class="trace scatter trace4a80ae" style="stroke-miterlimit: 2;"><g class="fills"><g><path class="js-fill" d="M0,339.83L22.85,330.13L45.7,316.46L68.55,328.43L91.4,319.85L114.25,314.86L137.1,313.45L159.95,304.4L182.8,303.74L205.65,303.83L228.5,297.9L251.35,285.55L274.2,281.59L297.05,270.66L319.9,242.1L342.75,248.8L365.6,236.07L388.45,234.28L411.3,200.54L434.15,199.79L457,202.24L457,219.58L434.15,222.69L411.3,226.27L388.45,253.88L365.6,257.18L342.75,268.77L319.9,264.06L297.05,292.15L274.2,303.55L251.35,300.44L228.5,311.28L182.8,314.1L159.95,322.4L137.1,318.16L114.25,323.34L91.4,326.54L68.55,336.35L45.7,329.47L22.85,338.61L0,344.92Z" style="fill: rgb(182, 232, 128); fill-opacity: 0.5; stroke-width: 0;"/></g></g><g class="errorbars"/><g class="lines"><path class="js-line" d="M0,344.92L22.85,338.61L45.7,329.47L68.55,336.35L91.4,326.54L114.25,323.34L137.1,318.16L159.95,322.4L182.8,314.1L228.5,311.28L251.35,300.44L274.2,303.55L297.05,292.15L319.9,264.06L342.75,268.77L365.6,257.18L388.45,253.88L411.3,226.27L434.15,222.69L457,219.58" style="vector-effect: non-scaling-stroke; fill: none; stroke: rgb(255, 102, 146); stroke-opacity: 1; stroke-width: 2px; opacity: 1;"/></g><g class="points"/><g class="text"/></g><g class="trace scatter trace4c12cc" style="stroke-miterlimit: 2;"><g class="fills"><g><path class="js-fill" d="M0,338.89L22.85,326.83L45.7,312.6L68.55,326.64L91.4,317.21L114.25,311.09L137.1,309.02L159.95,299.5L182.8,299.12L205.65,295.26L228.5,293.18L251.35,279.33L274.2,274.71L297.05,266.23L319.9,236.26L342.75,240.31L365.6,222.69L388.45,226.84L411.3,196.96L434.15,185.94L457,193.85L457,202.24L434.15,199.79L411.3,200.54L388.45,234.28L365.6,236.07L342.75,248.8L319.9,242.1L297.05,270.66L274.2,281.59L251.35,285.55L228.5,297.9L205.65,303.83L182.8,303.74L159.95,304.4L137.1,313.45L114.25,314.86L91.4,319.85L68.55,328.43L45.7,316.46L22.85,330.13L0,339.83Z" style="fill: rgb(255, 151, 255); fill-opacity: 0.5; stroke-width: 0;"/></g></g><g class="errorbars"/><g class="lines"><path class="js-line" d="M0,339.83L22.85,330.13L45.7,316.46L68.55,328.43L91.4,319.85L114.25,314.86L137.1,313.45L159.95,304.4L182.8,303.74L205.65,303.83L228.5,297.9L251.35,285.55L274.2,281.59L297.05,270.66L319.9,242.1L342.75,248.8L365.6,236.07L388.45,234.28L411.3,200.54L434.15,199.79L457,202.24" style="vector-effect: non-scaling-stroke; fill: none; stroke: rgb(182, 232, 128); stroke-opacity: 1; stroke-width: 2px; opacity: 1;"/></g><g class="points"/><g class="text"/></g><g class="trace scatter trace51f7e2" style="stroke-miterlimit: 2;"><g class="fills"><g><path class="js-fill" d="M0,306.57L22.85,283.19L45.7,269.72L68.55,275.65L91.4,273.77L114.25,251.34L137.1,248.61L159.95,240.22L182.8,239.94L205.65,223.35L228.5,242.86L251.35,208.46L274.2,193.29L297.05,181.88L319.9,130.81L342.75,137.21L365.6,104.61L388.45,81.14L411.3,50.7L434.15,18L457,74.17L457,193.85L434.15,185.94L411.3,196.96L388.45,226.84L365.6,222.69L342.75,240.31L319.9,236.26L297.05,266.23L274.2,274.71L251.35,279.33L228.5,293.18L205.65,295.26L182.8,299.12L159.95,299.5L137.1,309.02L114.25,311.09L91.4,317.21L68.55,326.64L45.7,312.6L22.85,326.83L0,338.89Z" style="fill: rgb(254, 203, 82); fill-opacity: 0.5; stroke-width: 0;"/></g></g><g class="errorbars"/><g class="lines"><path class="js-line" d="M0,338.89L22.85,326.83L45.7,312.6L68.55,326.64L91.4,317.21L114.25,311.09L137.1,309.02L159.95,299.5L182.8,299.12L205.65,295.26L228.5,293.18L251.35,279.33L274.2,274.71L297.05,266.23L319.9,236.26L342.75,240.31L365.6,222.69L388.45,226.84L411.3,196.96L434.15,185.94L457,193.85" style="vector-effect: non-scaling-stroke; fill: none; stroke: rgb(255, 151, 255); stroke-opacity: 1; stroke-width: 2px; opacity: 1;"/></g><g class="points"/><g class="text"/></g><g class="trace scatter tracec680b2" style="stroke-miterlimit: 2;"><g class="fills"/><g class="errorbars"/><g class="lines"><path class="js-line" d="M0,306.57L22.85,283.19L45.7,269.72L68.55,275.65L91.4,273.77L114.25,251.34L137.1,248.61L159.95,240.22L182.8,239.94L205.65,223.35L228.5,242.86L251.35,208.46L274.2,193.29L297.05,181.88L319.9,130.81L342.75,137.21L365.6,104.61L388.45,81.14L411.3,50.7L434.15,18L457,74.17" style="vector-effect: non-scaling-stroke; fill: none; stroke: rgb(254, 203, 82); stroke-opacity: 1; stroke-width: 2px; opacity: 1;"/></g><g class="points"/><g class="text"/></g></g></g><g class="overplot"/><path class="xlines-above crisp" d="M0,0" style="fill: none;"/><path class="ylines-above crisp" d="M0,0" style="fill: none;"/><g class="overlines-above"/><g class="xaxislayer-above"><g class="xtick"><text text-anchor="middle" x="0" y="433" transform="translate(148.55,0)" style="font-family: 'Open Sans', verdana, arial, sans-serif; font-size: 12px; fill: rgb(42, 63, 95); fill-opacity: 1; white-space: pre; opacity: 1;">2005</text></g><g class="xtick"><text text-anchor="middle" x="0" y="433" style="font-family: 'Open Sans', verdana, arial, sans-serif; font-size: 12px; fill: rgb(42, 63, 95); fill-opacity: 1; white-space: pre; opacity: 1;" transform="translate(262.8,0)">2010</text></g><g class="xtick"><text text-anchor="middle" x="0" y="433" style="font-family: 'Open Sans', verdana, arial, sans-serif; font-size: 12px; fill: rgb(42, 63, 95); fill-opacity: 1; white-space: pre; opacity: 1;" transform="translate(377.05,0)">2015</text></g><g class="xtick"><text text-anchor="middle" x="0" y="433" style="font-family: 'Open Sans', verdana, arial, sans-serif; font-size: 12px; fill: rgb(42, 63, 95); fill-opacity: 1; white-space: pre; opacity: 1;" transform="translate(491.3,0)">2020</text></g></g><g class="yaxislayer-above"><g class="ytick"><text text-anchor="end" x="79" y="4.199999999999999" transform="translate(0,420)" style="font-family: 'Open Sans', verdana, arial, sans-serif; font-size: 12px; fill: rgb(42, 63, 95); fill-opacity: 1; white-space: pre; opacity: 1;">0</text></g><g class="ytick"><text text-anchor="end" x="79" y="4.199999999999999" style="font-family: 'Open Sans', verdana, arial, sans-serif; font-size: 12px; fill: rgb(42, 63, 95); fill-opacity: 1; white-space: pre; opacity: 1;" transform="translate(0,372.88)">500</text></g><g class="ytick"><text text-anchor="end" x="79" y="4.199999999999999" style="font-family: 'Open Sans', verdana, arial, sans-serif; font-size: 12px; fill: rgb(42, 63, 95); fill-opacity: 1; white-space: pre; opacity: 1;" transform="translate(0,325.76)">1000</text></g><g class="ytick"><text text-anchor="end" x="79" y="4.199999999999999" style="font-family: 'Open Sans', verdana, arial, sans-serif; font-size: 12px; fill: rgb(42, 63, 95); fill-opacity: 1; white-space: pre; opacity: 1;" transform="translate(0,278.64)">1500</text></g><g class="ytick"><text text-anchor="end" x="79" y="4.199999999999999" style="font-family: 'Open Sans', verdana, arial, sans-serif; font-size: 12px; fill: rgb(42, 63, 95); fill-opacity: 1; white-space: pre; opacity: 1;" transform="translate(0,231.52)">2000</text></g><g class="ytick"><text text-anchor="end" x="79" y="4.199999999999999" style="font-family: 'Open Sans', verdana, arial, sans-serif; font-size: 12px; fill: rgb(42, 63, 95); fill-opacity: 1; white-space: pre; opacity: 1;" transform="translate(0,184.4)">2500</text></g><g class="ytick"><text text-anchor="end" x="79" y="4.199999999999999" style="font-family: 'Open Sans', verdana, arial, sans-serif; font-size: 12px; fill: rgb(42, 63, 95); fill-opacity: 1; white-space: pre; opacity: 1;" transform="translate(0,137.28)">3000</text></g><g class="ytick"><text text-anchor="end" x="79" y="4.199999999999999" style="font-family: 'Open Sans', verdana, arial, sans-serif; font-size: 12px; fill: rgb(42, 63, 95); fill-opacity: 1; white-space: pre; opacity: 1;" transform="translate(0,90.16)">3500</text></g></g><g class="overaxes-above"/></g></g><g class="polarlayer"/><g class="smithlayer"/><g class="ternarylayer"/><g class="geolayer"/><g class="funnelarealayer"/><g class="pielayer"/><g class="iciclelayer"/><g class="treemaplayer"/><g class="sunburstlayer"/><g class="glimages"/><defs id="topdefs-7387a3"><g class="clips"/><clipPath id="legend7387a3"><rect width="142" height="219" x="0" y="0"/></clipPath></defs><g class="layer-above"><g class="imagelayer"/><g class="shapelayer"/></g><g class="infolayer"><g class="legend" pointer-events="all" transform="translate(546.14,60)"><rect class="bg" shape-rendering="crispEdges" width="142" height="219" x="0" y="0" style="stroke: rgb(68, 68, 68); stroke-opacity: 1; fill: rgb(255, 255, 255); fill-opacity: 1; stroke-width: 0px;"/><g class="scrollbox" transform="" clip-path="url(#legend7387a3)"><text class="legendtitletext" text-anchor="start" x="2" y="18.2" style="font-family: 'Open Sans', verdana, arial, sans-serif; font-size: 14px; fill: rgb(42, 63, 95); fill-opacity: 1; white-space: pre;">country / region</text><g class="groups"><g class="traces" transform="translate(0,32.7)" style="opacity: 1;"><text class="legendtext" text-anchor="start" x="40" y="4.680000000000001" style="font-family: 'Open Sans', verdana, arial, sans-serif; font-size: 12px; fill: rgb(42, 63, 95); fill-opacity: 1; white-space: pre;">United States</text><g class="layers"><g class="legendfill"><path class="js-fill" d="M5,-2h30v6h-30z" style="stroke-width: 0; fill: rgb(254, 203, 82); fill-opacity: 0.5;"/></g><g class="legendlines"><path class="js-line" d="M5,-2h30" style="fill: none; stroke: rgb(254, 203, 82); stroke-opacity: 1; stroke-width: 2px;"/></g><g class="legendsymbols"><g class="legendpoints"/></g></g><rect class="legendtoggle" x="0" y="-9.5" width="136.359375" height="19" style="fill: rgb(0, 0, 0); fill-opacity: 0;"/></g><g class="traces" transform="translate(0,51.7)" style="opacity: 1;"><text class="legendtext" text-anchor="start" x="40" y="4.680000000000001" style="font-family: 'Open Sans', verdana, arial, sans-serif; font-size: 12px; fill: rgb(42, 63, 95); fill-opacity: 1; white-space: pre;">Taiwan</text><g class="layers"><g class="legendfill"><path class="js-fill" d="M5,-2h30v6h-30z" style="stroke-width: 0; fill: rgb(255, 151, 255); fill-opacity: 0.5;"/></g><g class="legendlines"><path class="js-line" d="M5,-2h30" style="fill: none; stroke: rgb(255, 151, 255); stroke-opacity: 1; stroke-width: 2px;"/></g><g class="legendsymbols"><g class="legendpoints"/></g></g><rect class="legendtoggle" x="0" y="-9.5" width="136.359375" height="19" style="fill: rgb(0, 0, 0); fill-opacity: 0;"/></g><g class="traces" transform="translate(0,70.7)" style="opacity: 1;"><text class="legendtext" text-anchor="start" x="40" y="4.680000000000001" style="font-family: 'Open Sans', verdana, arial, sans-serif; font-size: 12px; fill: rgb(42, 63, 95); fill-opacity: 1; white-space: pre;">Singapore</text><g class="layers"><g class="legendfill"><path class="js-fill" d="M5,-2h30v6h-30z" style="stroke-width: 0; fill: rgb(182, 232, 128); fill-opacity: 0.5;"/></g><g class="legendlines"><path class="js-line" d="M5,-2h30" style="fill: none; stroke: rgb(182, 232, 128); stroke-opacity: 1; stroke-width: 2px;"/></g><g class="legendsymbols"><g class="legendpoints"/></g></g><rect class="legendtoggle" x="0" y="-9.5" width="136.359375" height="19" style="fill: rgb(0, 0, 0); fill-opacity: 0;"/></g><g class="traces" transform="translate(0,89.7)" style="opacity: 1;"><text class="legendtext" text-anchor="start" x="40" y="4.680000000000001" style="font-family: 'Open Sans', verdana, arial, sans-serif; font-size: 12px; fill: rgb(42, 63, 95); fill-opacity: 1; white-space: pre;">South Korea</text><g class="layers"><g class="legendfill"><path class="js-fill" d="M5,-2h30v6h-30z" style="stroke-width: 0; fill: rgb(255, 102, 146); fill-opacity: 0.5;"/></g><g class="legendlines"><path class="js-line" d="M5,-2h30" style="fill: none; stroke: rgb(255, 102, 146); stroke-opacity: 1; stroke-width: 2px;"/></g><g class="legendsymbols"><g class="legendpoints"/></g></g><rect class="legendtoggle" x="0" y="-9.5" width="136.359375" height="19" style="fill: rgb(0, 0, 0); fill-opacity: 0;"/></g><g class="traces" transform="translate(0,108.7)" style="opacity: 1;"><text class="legendtext" text-anchor="start" x="40" y="4.680000000000001" style="font-family: 'Open Sans', verdana, arial, sans-serif; font-size: 12px; fill: rgb(42, 63, 95); fill-opacity: 1; white-space: pre;">Japan</text><g class="layers"><g class="legendfill"><path class="js-fill" d="M5,-2h30v6h-30z" style="stroke-width: 0; fill: rgb(25, 211, 243); fill-opacity: 0.5;"/></g><g class="legendlines"><path class="js-line" d="M5,-2h30" style="fill: none; stroke: rgb(25, 211, 243); stroke-opacity: 1; stroke-width: 2px;"/></g><g class="legendsymbols"><g class="legendpoints"/></g></g><rect class="legendtoggle" x="0" y="-9.5" width="136.359375" height="19" style="fill: rgb(0, 0, 0); fill-opacity: 0;"/></g><g class="traces" transform="translate(0,127.7)" style="opacity: 1;"><text class="legendtext" text-anchor="start" x="40" y="4.680000000000001" style="font-family: 'Open Sans', verdana, arial, sans-serif; font-size: 12px; fill: rgb(42, 63, 95); fill-opacity: 1; white-space: pre;">United Kingdom</text><g class="layers"><g class="legendfill"><path class="js-fill" d="M5,-2h30v6h-30z" style="stroke-width: 0; fill: rgb(255, 161, 90); fill-opacity: 0.5;"/></g><g class="legendlines"><path class="js-line" d="M5,-2h30" style="fill: none; stroke: rgb(255, 161, 90); stroke-opacity: 1; stroke-width: 2px;"/></g><g class="legendsymbols"><g class="legendpoints"/></g></g><rect class="legendtoggle" x="0" y="-9.5" width="136.359375" height="19" style="fill: rgb(0, 0, 0); fill-opacity: 0;"/></g><g class="traces" transform="translate(0,146.7)" style="opacity: 1;"><text class="legendtext" text-anchor="start" x="40" y="4.680000000000001" style="font-family: 'Open Sans', verdana, arial, sans-serif; font-size: 12px; fill: rgb(42, 63, 95); fill-opacity: 1; white-space: pre;">France</text><g class="layers"><g class="legendfill"><path class="js-fill" d="M5,-2h30v6h-30z" style="stroke-width: 0; fill: rgb(171, 99, 250); fill-opacity: 0.5;"/></g><g class="legendlines"><path class="js-line" d="M5,-2h30" style="fill: none; stroke: rgb(171, 99, 250); stroke-opacity: 1; stroke-width: 2px;"/></g><g class="legendsymbols"><g class="legendpoints"/></g></g><rect class="legendtoggle" x="0" y="-9.5" width="136.359375" height="19" style="fill: rgb(0, 0, 0); fill-opacity: 0;"/></g><g class="traces" transform="translate(0,165.7)" style="opacity: 1;"><text class="legendtext" text-anchor="start" x="40" y="4.680000000000001" style="font-family: 'Open Sans', verdana, arial, sans-serif; font-size: 12px; fill: rgb(42, 63, 95); fill-opacity: 1; white-space: pre;">Germany</text><g class="layers"><g class="legendfill"><path class="js-fill" d="M5,-2h30v6h-30z" style="stroke-width: 0; fill: rgb(0, 204, 150); fill-opacity: 0.5;"/></g><g class="legendlines"><path class="js-line" d="M5,-2h30" style="fill: none; stroke: rgb(0, 204, 150); stroke-opacity: 1; stroke-width: 2px;"/></g><g class="legendsymbols"><g class="legendpoints"/></g></g><rect class="legendtoggle" x="0" y="-9.5" width="136.359375" height="19" style="fill: rgb(0, 0, 0); fill-opacity: 0;"/></g><g class="traces" transform="translate(0,184.7)" style="opacity: 1;"><text class="legendtext" text-anchor="start" x="40" y="4.680000000000001" style="font-family: 'Open Sans', verdana, arial, sans-serif; font-size: 12px; fill: rgb(42, 63, 95); fill-opacity: 1; white-space: pre;">Canada</text><g class="layers"><g class="legendfill"><path class="js-fill" d="M5,-2h30v6h-30z" style="stroke-width: 0; fill: rgb(239, 85, 59); fill-opacity: 0.5;"/></g><g class="legendlines"><path class="js-line" d="M5,-2h30" style="fill: none; stroke: rgb(239, 85, 59); stroke-opacity: 1; stroke-width: 2px;"/></g><g class="legendsymbols"><g class="legendpoints"/></g></g><rect class="legendtoggle" x="0" y="-9.5" width="136.359375" height="19" style="fill: rgb(0, 0, 0); fill-opacity: 0;"/></g><g class="traces" transform="translate(0,203.7)" style="opacity: 1;"><text class="legendtext" text-anchor="start" x="40" y="4.680000000000001" style="font-family: 'Open Sans', verdana, arial, sans-serif; font-size: 12px; fill: rgb(42, 63, 95); fill-opacity: 1; white-space: pre;">Australia</text><g class="layers"><g class="legendfill"><path class="js-fill" d="M5,-2h30v6h-30z" style="stroke-width: 0; fill: rgb(99, 110, 250); fill-opacity: 0.5;"/></g><g class="legendlines"><path class="js-line" d="M5,-2h30" style="fill: none; stroke: rgb(99, 110, 250); stroke-opacity: 1; stroke-width: 2px;"/></g><g class="legendsymbols"><g class="legendpoints"/></g></g><rect class="legendtoggle" x="0" y="-9.5" width="136.359375" height="19" style="fill: rgb(0, 0, 0); fill-opacity: 0;"/></g></g></g><rect class="scrollbar" rx="20" ry="3" width="0" height="0" x="0" y="0" style="fill: rgb(128, 139, 164); fill-opacity: 1;"/></g><g class="g-gtitle"><text class="gtitle" x="350" y="30" text-anchor="middle" dy="0em" style="font-family: 'Open Sans', verdana, arial, sans-serif; font-size: 17px; fill: rgb(42, 63, 95); opacity: 1; font-weight: normal; white-space: pre;">Top 10 Countries / Regions of Collaborations with HKUST (2002-2022)</text></g><g class="g-xtitle"><text class="xtitle" x="308.5" y="460.8" text-anchor="middle" style="font-family: 'Open Sans', verdana, arial, sans-serif; font-size: 14px; fill: rgb(42, 63, 95); opacity: 1; font-weight: normal; white-space: pre;">work_publication_year</text></g><g class="g-ytitle"><text class="ytitle" transform="rotate(-90,23.684375000000003,240)" x="23.684375000000003" y="240" text-anchor="middle" style="font-family: 'Open Sans', verdana, arial, sans-serif; font-size: 14px; fill: rgb(42, 63, 95); opacity: 1; font-weight: normal; white-space: pre;">count</text></g></g></svg>